HIERARCHY
ROOT Hips
{
	OFFSET 0.00000 0.00000 0.00000
	CHANNELS 6 Xposition Yposition Zposition Zrotation Yrotation Xrotation 
	JOINT LHipJoint
	{
		OFFSET 0 0 0
		CHANNELS 3 Zrotation Yrotation Xrotation
		JOINT LeftUpLeg
		{
			OFFSET 1.74857 -1.85566 0.69197
			CHANNELS 3 Zrotation Yrotation Xrotation
			JOINT LeftLeg
			{
				OFFSET 2.40003 -6.59403 0.00000
				CHANNELS 3 Zrotation Yrotation Xrotation
				JOINT LeftFoot
				{
					OFFSET 2.82169 -7.75254 0.00000
					CHANNELS 3 Zrotation Yrotation Xrotation
					JOINT LeftToeBase
					{
						OFFSET 0.16466 -0.45240 2.26890
						CHANNELS 3 Zrotation Yrotation Xrotation
						End Site
						{
							OFFSET 0.00000 -0.00000 1.16486
						}
					}
				}
			}
		}
	}
	JOINT RHipJoint
	{
		OFFSET 0 0 0
		CHANNELS 3 Zrotation Yrotation Xrotation
		JOINT RightUpLeg
		{
			OFFSET -1.64169 -1.85566 0.69197
			CHANNELS 3 Zrotation Yrotation Xrotation
			JOINT RightLeg
			{
				OFFSET -2.41814 -6.64379 0.00000
				CHANNELS 3 Zrotation Yrotation Xrotation
				JOINT RightFoot
				{
					OFFSET -2.80588 -7.70911 0.00000
					CHANNELS 3 Zrotation Yrotation Xrotation
					JOINT RightToeBase
					{
						OFFSET -0.19098 -0.52472 2.25401
						CHANNELS 3 Zrotation Yrotation Xrotation
						End Site
						{
							OFFSET -0.00000 -0.00000 1.16333
						}
					}
				}
			}
		}
	}
	JOINT LowerBack
	{
		OFFSET 0 0 0
		CHANNELS 3 Zrotation Yrotation Xrotation
		JOINT Spine
		{
			OFFSET -0.02828 2.14690 -0.11061
			CHANNELS 3 Zrotation Yrotation Xrotation
			JOINT Spine1
			{
				OFFSET -0.00167 2.15299 0.00759
				CHANNELS 3 Zrotation Yrotation Xrotation
				JOINT Neck
				{
					OFFSET 0 0 0
					CHANNELS 3 Zrotation Yrotation Xrotation
					JOINT Neck1
					{
						OFFSET -0.09296 1.90118 0.07197
						CHANNELS 3 Zrotation Yrotation Xrotation
						JOINT Head
						{
							OFFSET 0.08490 1.89526 -0.24604
							CHANNELS 3 Zrotation Yrotation Xrotation
							End Site
							{
								OFFSET 0.03186 1.92109 -0.09483
							}
						}
					}
				}
				JOINT LeftShoulder
				{
					OFFSET 0 0 0
					CHANNELS 3 Zrotation Yrotation Xrotation
					JOINT LeftArm
					{
						OFFSET 3.21569 1.44644 -0.03720
						CHANNELS 3 Zrotation Yrotation Xrotation
						JOINT LeftForeArm
						{
							OFFSET 5.47651 -0.00000 -0.00000
							CHANNELS 3 Zrotation Yrotation Xrotation
							JOINT LeftHand
							{
								OFFSET 3.09058 -0.00000 -0.00000
								CHANNELS 3 Zrotation Yrotation Xrotation
								JOINT LeftFingerBase
								{
									OFFSET 0 0 0
									CHANNELS 3 Zrotation Yrotation Xrotation
									JOINT LeftHandIndex1
									{
										OFFSET 0.77161 -0.00000 -0.00000
										CHANNELS 3 Zrotation Yrotation Xrotation
										End Site
										{
											OFFSET 0.62209 -0.00000 -0.00000
										}
									}
								}
								JOINT LThumb
								{
									OFFSET 0 0 0
									CHANNELS 3 Zrotation Yrotation Xrotation
									End Site
									{
										OFFSET 0.63159 -0.00000 0.63159
									}
								}
							}
						}
					}
				}
				JOINT RightShoulder
				{
					OFFSET 0 0 0
					CHANNELS 3 Zrotation Yrotation Xrotation
					JOINT RightArm
					{
						OFFSET -3.38693 1.28904 -0.07093
						CHANNELS 3 Zrotation Yrotation Xrotation
						JOINT RightForeArm
						{
							OFFSET -5.14182 -0.00000 -0.00000
							CHANNELS 3 Zrotation Yrotation Xrotation
							JOINT RightHand
							{
								OFFSET -3.35565 -0.00000 -0.00000
								CHANNELS 3 Zrotation Yrotation Xrotation
								JOINT RightFingerBase
								{
									OFFSET 0 0 0
									CHANNELS 3 Zrotation Yrotation Xrotation
									JOINT RightHandIndex1
									{
										OFFSET -0.80104 -0.00000 -0.00000
										CHANNELS 3 Zrotation Yrotation Xrotation
										End Site
										{
											OFFSET -0.64582 -0.00000 -0.00000
										}
									}
								}
								JOINT RThumb
								{
									OFFSET 0 0 0
									CHANNELS 3 Zrotation Yrotation Xrotation
									End Site
									{
										OFFSET -0.65568 -0.00000 0.65568
									}
								}
							}
						}
					}
				}
			}
		}
	}
}
MOTION
Frames: 15
Frame Time: .0083333
-1.5705 18.057 -0.7861 0 0 0 0 0 0 -21 0 0 0 0 0 0 0 0 0 0 0 0 0 0 21 0 0 0 0 0 0 0 0 0 0 0 0 0 0 0 0 0 0 0 0 0 0 -16 0 0 21 0 0 11 0 0 0 -8 0 0 0 0 0 0 0 0 0 0 0 0 0 0 0 0 0 0 0 0 8 0 0 0 0 0 0 0 0 0 0 0 0 0 0 0 0 0
-1.5705 18.0570 -0.7861 -1.8680 11.1815 11.6088 0.0000 0.0000 0.0000 -6.7562 -19.2662 -20.1754 1.5794 7.9288 22.4981 0.3958 2.8479 -13.2720 1.5245 -7.7961 -22.0965 0.0000 0.0000 0.0000 27.3724 0.9454 -21.8511 -1.4758 -7.6762 21.7348 0.0650 -16.3164 -22.5071 -0.0016 0.2610 -0.7172 -4.6543 1.4254 12.3413 -0.6064 1.4133 6.5678 1.8141 0.6174 -0.1207 -6.9720 -4.7099 -5.0041 4.9905 -6.0610 4.2364 2.6178 -2.9958 2.6664 0.0000 0.0000 0.0000 -65.3185 25.7410 69.1168 79.1776 -59.5528 -50.6416 -0.0000 0.0000 -54.7015 27.8391 38.2659 18.1112 -7.1250 0.0000 -0.0000 -10.9041 71.4492 -6.8935 0.0000 0.0000 0.0000 52.1710 -22.2553 25.7176 -147.2301 43.1525 -106.7355 0.0000 -0.0000 -58.5131 11.6774 5.4739 1.1295 7.1250 -0.0000 -0.0000 27.5631 -24.1480 15.7078
-1.6173 18.0413 -0.7977 -1.9660 11.7424 11.5808 0.0000 0.0000 0.0000 -6.3849 -19.4667 -20.5864 1.6266 8.0406 22.8374 0.3973 2.5169 -13.0966 1.5660 -7.8967 -22.4006 0.0000 0.0000 0.0000 27.6454 0.8533 -22.0888 -1.5102 -7.7612 21.9912 -0.0093 -16.1958 -23.0618 -0.0011 -0.2138 0.5873 -4.6388 1.4273 12.3704 -0.6399 1.4166 6.5559 1.7694 0.6214 -0.1480 -7.0389 -4.6045 -4.9391 5.2606 -5.9385 4.3601 2.7295 -2.9300 2.7031 0.0000 -0.0000 0.0000 -65.3142 25.9108 69.0012 78.8507 -59.5250 -50.3599 -0.0000 0.0000 -54.0305 27.5565 38.1873 17.8801 -7.1250 0.0000 -0.0000 -11.2105 71.2784 -7.0466 0.0000 -0.0000 0.0000 50.3832 -21.3392 22.4984 -148.6861 41.9933 -107.7207 0.0000 -0.0000 -59.8148 13.5704 5.7711 1.3904 7.1250 -0.0000 -0.0000 28.7090 -23.7775 16.8495
-1.6635 18.0249 -0.8111 -2.0267 12.3043 11.5979 0.0000 0.0000 0.0000 -6.0439 -19.7346 -20.9654 1.6600 8.1187 23.0753 0.3956 2.3207 -12.9590 1.6373 -8.0659 -22.9144 0.0000 0.0000 0.0000 27.8660 0.8868 -22.3831 -1.5547 -7.8694 22.3181 -0.0544 -16.2417 -23.5523 -0.0053 -0.4693 1.2895 -4.5541 1.4429 12.3863 -0.7372 1.4435 6.5036 1.6164 0.6410 -0.2096 -7.0576 -4.5331 -4.8777 5.5537 -5.8680 4.5303 2.8382 -2.8886 2.7586 -0.0000 0.0000 0.0000 -65.0462 26.0535 69.1065 78.6860 -59.5107 -50.2179 -0.0000 0.0000 -53.4436 27.1064 38.0471 17.5088 -7.1250 0.0000 -0.0000 -11.6736 70.9929 -7.2666 -0.0000 0.0000 0.0000 48.7344 -20.4085 18.9396 -149.9848 40.9064 -108.5804 0.0000 -0.0000 -61.3705 14.9376 5.8502 1.5576 7.1250 -0.0000 -0.0000 29.5491 -23.6215 17.6333
-1.7055 18.0114 -0.8206 -2.0549 12.7982 11.5252 0.0000 0.0000 0.0000 -5.8029 -19.9944 -21.1752 1.6929 8.1947 23.3071 0.4016 2.1507 -12.9516 1.7086 -8.2308 -23.4174 0.0000 0.0000 0.0000 28.0702 0.6495 -22.6587 -1.5994 -7.9764 22.6425 -0.0845 -16.2107 -23.7883 -0.0071 -0.5431 1.4925 -4.4903 1.4788 12.4327 -0.8447 1.4931 6.4620 1.4611 0.6713 -0.2775 -6.9417 -4.4586 -4.7544 5.7107 -5.7986 4.6939 2.8760 -2.8495 2.7881 -0.0000 -0.0000 0.0000 -64.8013 26.1609 69.1677 78.3613 -59.4819 -49.9381 -0.0000 0.0000 -52.9684 26.6885 37.7159 17.0938 -7.1250 0.0000 -0.0000 -11.8565 70.5348 -7.2612 -0.0000 -0.0000 0.0000 47.0172 -19.4915 15.2495 -151.1292 39.9056 -109.3223 0.0000 -0.0000 -63.0178 15.7314 6.0000 1.6865 7.1250 -0.0000 -0.0000 30.0042 -23.4329 18.1570
-1.7463 17.9999 -0.8249 -2.0737 13.2177 11.3267 0.0000 0.0000 0.0000 -5.6462 -20.1118 -21.2070 1.7184 8.2531 23.4854 0.4104 1.9056 -12.9469 1.7073 -8.2278 -23.4081 0.0000 0.0000 0.0000 28.2744 0.3171 -22.8340 -1.6493 -8.0937 22.9991 -0.0822 -16.2899 -23.8744 -0.0038 -0.3974 1.0919 -4.4658 1.5299 12.5048 -0.9435 1.5590 6.4701 1.3348 0.7074 -0.3084 -6.7762 -4.3310 -4.5664 5.8136 -5.6584 4.7381 2.8903 -2.7764 2.7553 0.0000 0.0000 0.0000 -64.6141 26.2315 69.1384 78.1292 -59.4608 -49.7382 -0.0000 0.0000 -52.6238 26.5681 37.3644 16.8821 -7.1250 0.0000 -0.0000 -11.6119 70.1547 -7.0121 0.0000 0.0000 0.0000 45.1627 -18.4287 11.3568 -152.0037 39.1129 -109.8786 0.0000 -0.0000 -64.7001 16.2056 6.4355 1.8658 7.1250 -0.0000 -0.0000 30.1887 -23.0080 18.6659
-1.7858 17.9875 -0.8287 -2.1063 13.6689 11.1614 0.0000 0.0000 0.0000 -5.4720 -20.2030 -21.2703 1.7364 8.2939 23.6104 0.4148 1.6344 -12.8714 1.7201 -8.2571 -23.4976 0.0000 0.0000 0.0000 28.4926 0.0357 -23.0146 -1.6987 -8.2081 23.3478 -0.0785 -16.4155 -24.0093 -0.0023 -0.3103 0.8527 -4.3913 1.5405 12.5385 -1.0202 1.5779 6.4357 1.2096 0.7217 -0.3603 -6.7537 -4.1758 -4.2464 6.0160 -5.4811 4.6818 2.9690 -2.6869 2.6715 0.0000 0.0000 0.0000 -64.5435 26.3747 68.9436 77.9221 -59.4416 -49.5598 -0.0000 0.0000 -52.1471 26.3602 37.0325 16.6176 -7.1250 0.0000 -0.0000 -11.5206 69.7649 -6.8564 0.0000 0.0000 0.0000 43.1557 -17.2728 7.3874 -152.7097 38.4546 -110.3209 0.0000 -0.0000 -66.4661 16.0513 6.6955 1.9213 7.1250 -0.0000 -0.0000 30.0321 -22.7856 18.7197
-1.8224 17.9757 -0.8318 -1.9855 14.0751 11.0225 0.0000 0.0000 0.0000 -5.4806 -20.3535 -21.2604 1.7505 8.3259 23.7084 0.4216 1.4002 -12.8542 1.6689 -8.1393 -23.1381 0.0000 0.0000 0.0000 28.5134 -0.2182 -23.1549 -1.7473 -8.3186 23.6861 -0.1131 -16.3781 -24.2721 -0.0060 -0.4997 1.3732 -4.4907 1.5595 12.5501 -1.1017 1.5897 6.3885 1.1782 0.7288 -0.4162 -6.8520 -4.0529 -4.0125 6.2528 -5.3393 4.7228 3.0795 -2.6155 2.6454 -0.0000 0.0000 0.0000 -64.5327 26.5504 68.7004 77.6754 -59.4182 -49.3475 -0.0000 0.0000 -51.5717 25.9549 36.6967 16.2185 -7.1250 0.0000 -0.0000 -11.6980 69.3086 -6.8436 -0.0000 0.0000 0.0000 41.0435 -16.0334 3.3110 -153.3156 37.8766 -110.6953 0.0000 -0.0000 -68.1091 15.5097 6.6974 1.8537 7.1250 -0.0000 -0.0000 29.7007 -22.8216 18.4114
-1.8577 17.9652 -0.8329 -1.9274 14.3936 10.8201 0.0000 0.0000 0.0000 -5.4580 -20.4431 -21.1625 1.7626 8.3530 23.7915 0.4336 1.1970 -12.9298 1.6275 -8.0429 -22.8443 0.0000 0.0000 0.0000 28.5763 -0.3706 -23.1754 -1.7932 -8.4213 24.0011 -0.1472 -16.3878 -24.5874 -0.0078 -0.5702 1.5670 -4.5327 1.6106 12.5477 -1.1789 1.6522 6.3812 1.1133 0.7609 -0.4243 -6.7241 -3.9475 -4.0110 6.2801 -5.2161 4.9659 3.0710 -2.5509 2.7141 0.0000 -0.0000 0.0000 -64.4154 26.7073 68.5271 77.6480 -59.4156 -49.3238 -0.0000 0.0000 -50.9940 25.6726 36.4142 15.9255 -7.1250 0.0000 -0.0000 -11.7716 68.9443 -6.7908 0.0000 -0.0000 0.0000 38.9686 -14.6308 -0.9605 -153.6822 37.5209 -110.9195 0.0000 -0.0000 -69.3691 15.0226 6.7735 1.8130 7.1250 -0.0000 -0.0000 29.3833 -22.7856 18.1770
-1.8926 17.9542 -0.8299 -1.8894 14.6362 10.6461 0.0000 0.0000 0.0000 -5.4168 -20.4610 -21.0591 1.7687 8.3666 23.8332 0.4422 1.0264 -12.9758 1.6335 -8.0568 -22.8867 0.0000 0.0000 0.0000 28.6694 -0.5040 -23.2098 -1.8373 -8.5186 24.3008 -0.1685 -16.4136 -24.8080 -0.0061 -0.5062 1.3911 -4.5546 1.6829 12.4716 -1.2568 1.7477 6.3495 1.0337 0.8098 -0.4198 -6.4992 -3.8207 -4.0273 6.2490 -5.0693 5.3096 3.0252 -2.4734 2.8126 -0.0000 -0.0000 0.0000 -64.1975 26.8903 68.4629 77.8687 -59.4365 -49.5139 -0.0000 0.0000 -50.4523 25.6735 36.1730 15.8397 -7.1250 0.0000 -0.0000 -11.5183 68.7091 -6.5823 -0.0000 -0.0000 0.0000 36.8360 -13.2238 -5.2570 -153.7885 37.4168 -110.9842 0.0000 -0.0000 -69.9391 14.9845 7.2085 1.9236 7.1250 -0.0000 -0.0000 29.2593 -22.3963 18.3862
-1.9254 17.9446 -0.8243 -1.8478 14.8734 10.4914 0.0000 0.0000 0.0000 -5.3842 -20.4696 -20.9505 1.7718 8.3735 23.8545 0.4504 0.8792 -13.0258 1.7011 -8.2136 -23.3649 0.0000 0.0000 0.0000 28.7583 -0.6505 -23.2331 -1.8761 -8.6031 24.5615 -0.1940 -16.3962 -25.0055 -0.0065 -0.5193 1.4269 -4.5565 1.7630 12.3490 -1.3300 1.8564 6.2719 0.9467 0.8664 -0.4385 -6.3650 -3.7267 -3.9994 6.2601 -4.9686 5.7256 3.0104 -2.4198 2.9367 -0.0000 0.0000 0.0000 -63.9671 27.0660 68.4596 78.0180 -59.4505 -49.6425 -0.0000 0.0000 -49.8904 25.6513 36.0683 15.7872 -7.1250 0.0000 -0.0000 -11.4400 68.5998 -6.5089 -0.0000 0.0000 0.0000 34.6512 -11.9285 -9.4669 -153.5827 37.6179 -110.8588 0.0000 -0.0000 -69.6192 15.7326 8.6554 2.4275 7.1250 -0.0000 -0.0000 29.3876 -21.0429 19.5785
-1.9545 17.9343 -0.8180 -1.7443 15.0694 10.3008 0.0000 0.0000 0.0000 -5.4520 -20.4958 -20.7333 1.7690 8.3674 23.8357 0.4586 0.7445 -13.0834 1.7504 -8.3257 -23.7077 0.0000 0.0000 0.0000 28.7586 -0.7677 -23.1781 -1.9138 -8.6843 24.8126 -0.2220 -16.3858 -25.2318 -0.0073 -0.5519 1.5165 -4.5704 1.8540 12.2577 -1.4481 1.9756 6.1957 0.8178 0.9288 -0.4713 -6.2112 -3.7054 -4.0395 6.2426 -4.9641 6.2171 2.9774 -2.4126 3.1054 -0.0000 0.0000 0.0000 -63.8381 27.2231 68.2662 78.0074 -59.4495 -49.6333 -0.0000 0.0000 -49.2177 25.5393 35.9920 15.6848 -7.1250 0.0000 -0.0000 -11.5095 68.4904 -6.5204 -0.0000 0.0000 0.0000 32.5891 -10.5894 -13.2796 -153.0151 38.1648 -110.5102 0.0000 -0.0000 -68.5673 16.7819 11.7196 3.5053 7.1250 -0.0000 -0.0000 29.3525 -18.2004 21.7855
-1.9807 17.9268 -0.8080 -1.6572 15.2390 10.1217 0.0000 0.0000 0.0000 -5.5217 -20.4911 -20.5013 1.7618 8.3513 23.7864 0.4643 0.6658 -13.1304 1.7711 -8.3720 -23.8499 0.0000 0.0000 0.0000 28.7593 -0.8383 -23.0635 -1.9446 -8.7498 25.0157 -0.2419 -16.4331 -25.4594 -0.0079 -0.5724 1.5729 -4.5040 1.9162 12.1123 -1.5852 2.0694 6.1366 0.6297 0.9795 -0.4526 -6.0623 -3.6752 -4.1656 6.2344 -4.9442 6.6963 2.9488 -2.3958 3.2868 0.0000 -0.0000 0.0000 -63.8138 27.3618 67.8078 77.9710 -59.4461 -49.6020 -0.0000 0.0000 -48.5276 25.3154 36.0910 15.5703 -7.1250 0.0000 -0.0000 -11.9040 68.5177 -6.7537 0.0000 -0.0000 0.0000 30.4116 -9.0242 -17.3715 -153.1700 38.0166 -110.6058 0.0000 -0.0000 -69.1060 14.9253 9.6584 2.5606 7.1250 -0.0000 -0.0000 28.6854 -20.1874 19.6139
-2.0055 17.9226 -0.7925 -1.4606 15.3637 9.9352 0.0000 0.0000 0.0000 -5.7529 -20.4376 -20.1674 1.7492 8.3228 23.6989 0.4823 0.5648 -13.3360 1.8033 -8.4438 -24.0703 0.0000 0.0000 0.0000 28.6421 -0.9234 -22.8684 -1.9687 -8.8007 25.1738 -0.2524 -16.5301 -25.6694 -0.0101 -0.6484 1.7818 -4.5491 1.9673 11.9808 -1.7386 2.1364 6.0874 0.4905 1.0147 -0.4316 -6.0227 -3.5743 -4.3472 6.3089 -4.8266 7.1849 2.9747 -2.3295 3.4844 -0.0000 0.0000 0.0000 -63.7595 27.4949 67.3790 77.9308 -59.4424 -49.5673 -0.0000 0.0000 -47.9088 24.8994 36.2288 15.3406 -7.1250 0.0000 -0.0000 -12.5906 68.5228 -7.1491 -0.0000 0.0000 0.0000 28.2240 -7.3599 -21.1297 -152.8789 38.2944 -110.4259 0.0000 -0.0000 -68.8291 14.1462 9.2984 2.3320 7.1250 -0.0000 -0.0000 28.2888 -20.5584 18.9775
-2.0242 17.9198 -0.7710 -1.2982 15.4136 9.7160 0.0000 0.0000 0.0000 -5.9916 -20.3922 -19.7184 1.7339 8.2882 23.5930 0.5088 0.6230 -13.7152 1.8849 -8.6220 -24.6200 0.0000 0.0000 0.0000 28.5354 -0.9984 -22.5917 -1.9865 -8.8379 25.2894 -0.2679 -16.5922 -25.8757 -0.0117 -0.6998 1.9231 -4.4971 2.0520 11.7744 -1.9104 2.2612 6.0202 0.2734 1.0805 -0.3872 -5.9713 -3.4817 -4.4096 6.6459 -4.7622 7.9534 2.7788 -2.2603 3.3875 0.0000 -0.0000 0.0000 -63.5899 27.6171 67.1323 77.9430 -59.4435 -49.5778 -0.0000 0.0000 -47.4784 24.4981 36.3724 15.1222 -7.1250 0.0000 -0.0000 -13.2638 68.5374 -7.5407 0.0000 -0.0000 0.0000 26.1572 -5.8465 -24.6633 -152.3855 38.7589 -110.1186 0.0000 -0.0000 -68.0410 14.0090 9.7633 2.4227 7.1250 -0.0000 -0.0000 28.1093 -20.1445 19.1281
